<?xml version="1.0" encoding="utf-8"?>
<!-- Generator: Adobe Illustrator 25.4.1, SVG Export Plug-In . SVG Version: 6.00 Build 0)  -->
<svg version="1.1" id="Layer_1" xmlns="http://www.w3.org/2000/svg" xmlns:xlink="http://www.w3.org/1999/xlink" x="0px" y="0px"
	 viewBox="0 0 100 99" style="enable-background:new 0 0 100 99;" xml:space="preserve">
<g>
	<path d="M59.4,49.5c0,5.2-4.2,9.4-9.4,9.4s-9.4-4.2-9.4-9.4s4.2-9.4,9.4-9.4S59.4,44.3,59.4,49.5z"/>
	<path d="M71.9,32.9c-0.5-1.2-1.2-2.3-2.1-3.2c-0.9-0.9-2-1.7-3.2-2.1c-1-0.4-2.5-0.8-5.2-1c-3-0.1-3.9-0.2-11.4-0.2
		s-8.4,0-11.4,0.2c-2.7,0.1-4.2,0.6-5.2,1c-1.2,0.5-2.3,1.2-3.2,2.1c-0.9,0.9-1.7,2-2.1,3.2c-0.4,1-0.8,2.5-1,5.2
		c-0.1,3-0.2,3.9-0.2,11.4s0,8.4,0.2,11.4c0.1,2.7,0.6,4.2,1,5.2c0.5,1.2,1.2,2.3,2.1,3.2c0.9,0.9,2,1.7,3.2,2.1
		c1,0.4,2.5,0.8,5.2,1c3,0.1,3.9,0.2,11.4,0.2s8.4,0,11.4-0.2c2.7-0.1,4.2-0.6,5.2-1c2.5-0.9,4.4-2.9,5.3-5.3c0.4-1,0.8-2.5,1-5.2
		c0.1-3,0.2-3.9,0.2-11.4s0-8.4-0.2-11.4C72.8,35.4,72.3,33.9,71.9,32.9z M50,63.9c-8,0-14.4-6.5-14.4-14.4S42,35.1,50,35.1
		s14.4,6.5,14.4,14.4S58,63.9,50,63.9z M65,37.9c-1.9,0-3.4-1.5-3.4-3.4s1.5-3.4,3.4-3.4s3.4,1.5,3.4,3.4
		C68.4,36.3,66.9,37.9,65,37.9z"/>
	<path d="M50,0.5c-27.1,0-49,21.9-49,49s21.9,49,49,49s49-21.9,49-49S77.1,0.5,50,0.5z M78,61.1c-0.1,3-0.6,5-1.3,6.8
		c-1.5,3.8-4.4,6.8-8.2,8.2c-1.8,0.7-3.8,1.2-6.8,1.3c-3,0.1-4,0.2-11.6,0.2s-8.6,0-11.6-0.2c-3-0.1-5-0.6-6.8-1.3
		c-1.9-0.7-3.6-1.8-5-3.2c-1.4-1.4-2.5-3.1-3.2-5c-0.7-1.8-1.2-3.8-1.3-6.8c-0.1-3-0.2-4-0.2-11.6s0-8.6,0.2-11.6
		c0.1-3,0.6-5,1.3-6.8c0.7-1.9,1.8-3.6,3.2-5c1.4-1.4,3.1-2.5,5-3.2c1.8-0.7,3.8-1.2,6.8-1.3c3-0.1,4-0.2,11.6-0.2s8.6,0,11.6,0.2
		c3,0.1,5,0.6,6.8,1.3c1.9,0.7,3.6,1.8,5,3.2c1.4,1.4,2.5,3.1,3.2,5c0.7,1.8,1.2,3.8,1.3,6.8c0.1,3,0.2,4,0.2,11.6
		S78.1,58.1,78,61.1z"/>
</g>
</svg>
