<?xml version="1.0" encoding="utf-8"?>
<!-- Generator: Adobe Illustrator 25.4.1, SVG Export Plug-In . SVG Version: 6.00 Build 0)  -->
<svg version="1.1" id="Layer_1" xmlns="http://www.w3.org/2000/svg" xmlns:xlink="http://www.w3.org/1999/xlink" x="0px" y="0px"
	 viewBox="0 0 100 100" style="enable-background:new 0 0 100 100;" xml:space="preserve">
<path d="M50,1C22.9,1,1,22.9,1,50s21.9,49,49,49s49-21.9,49-49S77.1,1,50,1z M35.8,75.1h-12V39.2h11.9v35.9H35.8z M29.8,34.3
	L29.8,34.3c-4.1,0-6.7-2.8-6.7-6.2c0-3.5,2.7-6.2,6.8-6.2s6.6,2.7,6.7,6.2C36.5,31.5,34,34.3,29.8,34.3z M78.8,75.1H66.9V55.9
	c0-4.8-1.7-8.1-6-8.1c-3.3,0-5.3,2.2-6.1,4.4c-0.3,0.8-0.4,1.8-0.4,2.9v20h-12c0,0,0.2-32.5,0-35.9h11.9v5.1
	c1.6-2.4,4.4-5.9,10.8-5.9c7.9,0,13.7,5.1,13.7,16.2V75.1z"/>
</svg>
