<?xml version="1.0" encoding="utf-8"?>
<!-- Generator: Adobe Illustrator 25.4.1, SVG Export Plug-In . SVG Version: 6.00 Build 0)  -->
<svg version="1.1" id="Bold" xmlns="http://www.w3.org/2000/svg" xmlns:xlink="http://www.w3.org/1999/xlink" x="0px" y="0px"
	 viewBox="0 0 100 100" style="enable-background:new 0 0 100 100;" xml:space="preserve">
<style type="text/css">
	.st0{fill:#FFFFFF;}
</style>
<path class="st0" d="M50,99c27.1,0,49-21.9,49-49S77.1,1,50,1S1,22.9,1,50S22.9,99,50,99z M23.4,48.9l47.2-18.2
	c2.2-0.8,4.1,0.5,3.4,3.9l0,0l-8,37.9c-0.6,2.7-2.2,3.3-4.4,2.1l-12.2-9l-5.9,5.7c-0.7,0.7-1.2,1.2-2.5,1.2l0.9-12.5l22.7-20.5
	c1-0.9-0.2-1.4-1.5-0.5L35,56.6l-12.1-3.8C20.2,52,20.2,50.2,23.4,48.9L23.4,48.9z"/>
</svg>
