<?xml version="1.0" encoding="utf-8"?>
<!-- Generator: Adobe Illustrator 25.4.1, SVG Export Plug-In . SVG Version: 6.00 Build 0)  -->
<svg version="1.1" id="Layer_1" xmlns="http://www.w3.org/2000/svg" xmlns:xlink="http://www.w3.org/1999/xlink" x="0px" y="0px"
	 viewBox="0 0 100 100" style="enable-background:new 0 0 100 100;" xml:space="preserve">
<path d="M50,1C22.9,1,1,22.9,1,50s21.9,49,49,49s49-21.9,49-49S77.1,1,50,1z M72.4,39.2c0,0.5,0,1,0,1.5c0,14.9-11.3,32-32,32l0,0
	l0,0c-6.4,0-12.3-1.9-17.2-5.1c0.9,0.1,1.8,0.2,2.7,0.2c5.3,0,10.1-1.8,14-4.8c-4.9-0.1-9.1-3.3-10.5-7.8c0.7,0.1,1.4,0.2,2.1,0.2
	c1,0,2-0.1,3-0.4c-5.1-1-9-5.6-9-11c0-0.1,0-0.1,0-0.1c1.5,0.8,3.2,1.3,5.1,1.4c-3-2-5-5.5-5-9.4c0-2.1,0.6-4,1.5-5.7
	C32.6,37,40.9,41.5,50.3,42c-0.2-0.8-0.3-1.7-0.3-2.6c0-6.2,5-11.2,11.2-11.2c3.2,0,6.2,1.4,8.2,3.6c2.6-0.5,5-1.4,7.1-2.7
	c-0.8,2.6-2.6,4.8-4.9,6.2c2.3-0.3,4.4-0.9,6.5-1.8C76.5,35.6,74.6,37.6,72.4,39.2z"/>
</svg>
