<?xml version="1.0" encoding="utf-8"?>
<!-- Generator: Adobe Illustrator 25.4.1, SVG Export Plug-In . SVG Version: 6.00 Build 0)  -->
<svg version="1.1" id="Layer_1" xmlns="http://www.w3.org/2000/svg" xmlns:xlink="http://www.w3.org/1999/xlink" x="0px" y="0px"
	 viewBox="0 0 100 100" style="enable-background:new 0 0 100 100;" xml:space="preserve">
<g>
	<path d="M43.9,59.2L59.8,50l-15.9-9.2V59.2z"/>
	<path d="M50,1C22.9,1,1,22.9,1,50s21.9,49,49,49s49-21.9,49-49S77.1,1,50,1z M80.6,50.1c0,0,0,9.9-1.3,14.7
		c-0.7,2.6-2.8,4.7-5.4,5.4c-4.8,1.3-24,1.3-24,1.3s-19.1,0-24-1.3c-2.6-0.7-4.7-2.8-5.4-5.4C19.4,60,19.4,50,19.4,50
		s0-9.9,1.3-14.7c0.7-2.6,2.8-4.7,5.4-5.4c4.8-1.3,24-1.3,24-1.3s19.2,0,24,1.3c2.6,0.7,4.7,2.8,5.4,5.4
		C80.7,40.1,80.6,50.1,80.6,50.1z"/>
</g>
</svg>
